HIERARCHY
ROOT Hips
{
	OFFSET 0.000000 0.000000 0.000000
	CHANNELS 6 Xposition Yposition Zposition Xrotation Yrotation Zrotation
	JOINT C_ctrl
	{
		OFFSET 0.000000 35.040482 -0.000011
		CHANNELS 3 Xrotation Yrotation Zrotation
		JOINT Bip01
		{
			OFFSET -41.537640 41.789009 -0.000007
			CHANNELS 3 Xrotation Yrotation Zrotation
			JOINT Bip01_Pelvis
			{
				OFFSET -2.462887 0.000000 0.000000
				CHANNELS 3 Xrotation Yrotation Zrotation
				JOINT BN_Tail_01
				{
					OFFSET -11.399368 7.351341 -0.000013
					CHANNELS 3 Xrotation Yrotation Zrotation
					JOINT BN_Tail_02
					{
						OFFSET -11.365196 -0.343025 0.000012
						CHANNELS 3 Xrotation Yrotation Zrotation
						JOINT BN_Tail_03
						{
							OFFSET -15.076256 -0.454979 0.000017
							CHANNELS 3 Xrotation Yrotation Zrotation
							JOINT BN_Tail_04
							{
								OFFSET -17.395691 -0.525002 0.000016
								CHANNELS 3 Xrotation Yrotation Zrotation
								JOINT BN_Tail_05
								{
									OFFSET -16.699837 -0.504005 0.000016
									CHANNELS 3 Xrotation Yrotation Zrotation
									End Site
									{
										OFFSET 0.503998 -16.699829 0.000067
									}
								}
							}
						}
					}
				}
				JOINT Bip01_Spine
				{
					OFFSET 8.297798 5.916809 -0.000020
					CHANNELS 3 Xrotation Yrotation Zrotation
					JOINT Bip01_R_Thigh
					{
						OFFSET -8.297779 -5.916794 10.541781
						CHANNELS 3 Xrotation Yrotation Zrotation
						JOINT Bip01_R_Calf
						{
							OFFSET 5.631542 -22.906792 0.862690
							CHANNELS 3 Xrotation Yrotation Zrotation
							JOINT Bip01_R_HorseLink
							{
								OFFSET -16.984341 -19.231926 -3.555767
								CHANNELS 3 Xrotation Yrotation Zrotation
								JOINT Bip01_R_Foot
								{
									OFFSET 4.290367 -24.783146 0.578056
									CHANNELS 3 Xrotation Yrotation Zrotation
									JOINT Bip01_R_Toe0
									{
										OFFSET 3.561211 -5.815116 0.760802
										CHANNELS 3 Xrotation Yrotation Zrotation
										JOINT Bip01_R_Toe0Nub
										{
											OFFSET 16.135469 0.002017 1.534789
											CHANNELS 3 Xrotation Yrotation Zrotation
											End Site
											{
												OFFSET -0.000002 16.208284 -0.000056
											}
										}
									}
								}
							}
						}
					}
					JOINT Bip01_L_Thigh
					{
						OFFSET -8.297813 -5.916832 -10.541739
						CHANNELS 3 Xrotation Yrotation Zrotation
						JOINT Bip01_L_Calf
						{
							OFFSET 5.631535 -22.906792 -0.862625
							CHANNELS 3 Xrotation Yrotation Zrotation
							JOINT Bip01_L_HorseLink
							{
								OFFSET -16.984318 -19.231949 3.555875
								CHANNELS 3 Xrotation Yrotation Zrotation
								JOINT Bip01_L_Foot
								{
									OFFSET 4.290367 -24.783169 -0.577965
									CHANNELS 3 Xrotation Yrotation Zrotation
									JOINT Bip01_L_Toe0
									{
										OFFSET 3.561245 -5.815111 -0.760799
										CHANNELS 3 Xrotation Yrotation Zrotation
										JOINT Bip01_L_Toe0Nub
										{
											OFFSET 6.574303 -0.000005 -1.538561
											CHANNELS 3 Xrotation Yrotation Zrotation
											End Site
											{
												OFFSET 0.000004 -6.751935 0.000023
											}
										}
									}
								}
							}
						}
					}
					JOINT Bip01_Spine1
					{
						OFFSET 20.556803 -4.626213 -0.000025
						CHANNELS 3 Xrotation Yrotation Zrotation
						JOINT Saddle
						{
							OFFSET 17.608810 18.174690 -0.000143
							CHANNELS 3 Xrotation Yrotation Zrotation
							End Site
							{
								OFFSET -0.000063 -0.000061 -22.448387
							}
						}
						JOINT BN_center
						{
							OFFSET 10.743275 -13.417107 -0.172041
							CHANNELS 3 Xrotation Yrotation Zrotation
							End Site
							{
								OFFSET 22.434088 0.553078 -0.579614
							}
						}
						JOINT Bip01_Spine2
						{
							OFFSET 24.765072 -2.054115 -0.000032
							CHANNELS 3 Xrotation Yrotation Zrotation
							JOINT Handle
							{
								OFFSET 63.735676 16.430748 -16.052464
								CHANNELS 3 Xrotation Yrotation Zrotation
								JOINT IK_Chain01
								{
									OFFSET -4.713058 -6.020439 0.185448
									CHANNELS 3 Xrotation Yrotation Zrotation
									End Site
									{
										OFFSET -0.000023 -0.000023 -7.648071
									}
								}
							}
							JOINT BN_hair04_01
							{
								OFFSET 1.987491 16.256981 -2.049672
								CHANNELS 3 Xrotation Yrotation Zrotation
								JOINT BN_hair04_02
								{
									OFFSET -1.318762 -3.831451 -6.174704
									CHANNELS 3 Xrotation Yrotation Zrotation
									JOINT BN_hair04_03
									{
										OFFSET -0.827490 -5.886627 -5.656666
										CHANNELS 3 Xrotation Yrotation Zrotation
										End Site
										{
											OFFSET -2.658262 5.010620 -5.929780
										}
									}
								}
							}
							JOINT Bip01_Neck
							{
								OFFSET 25.574577 9.433014 -0.000084
								CHANNELS 3 Xrotation Yrotation Zrotation
								JOINT Bip01_R_Clavicle
								{
									OFFSET -16.535652 0.011192 6.705692
									CHANNELS 3 Xrotation Yrotation Zrotation
									JOINT Bip01_R_UpperArm
									{
										OFFSET 20.272621 -12.959984 2.510816
										CHANNELS 3 Xrotation Yrotation Zrotation
										JOINT Bip01_R_Forearm
										{
											OFFSET -13.633509 -15.503704 -0.653585
											CHANNELS 3 Xrotation Yrotation Zrotation
											JOINT Bip01_R_Hand
											{
												OFFSET 2.580030 -27.804676 -1.136415
												CHANNELS 3 Xrotation Yrotation Zrotation
												JOINT Bip01_R_Finger0
												{
													OFFSET -0.281744 -19.659061 -0.398649
													CHANNELS 3 Xrotation Yrotation Zrotation
													JOINT Bip01_Xtra02
													{
														OFFSET 4.152210 -5.712314 0.433813
														CHANNELS 3 Xrotation Yrotation Zrotation
														JOINT Bip01_Xtra02Nub
														{
															OFFSET 15.457960 0.041654 0.507982
															CHANNELS 3 Xrotation Yrotation Zrotation
															End Site
															{
																OFFSET -15.421730 -0.157725 -1.163459
															}
														}
													}
													JOINT Bip01_R_Finger0Nub
													{
														OFFSET 8.362326 -9.718440 -0.143142
														CHANNELS 3 Xrotation Yrotation Zrotation
														End Site
														{
															OFFSET -1.213036 -0.198171 9.872291
														}
													}
												}
											}
										}
									}
								}
								JOINT Bip01_L_Clavicle
								{
									OFFSET -16.535673 0.011162 -6.705583
									CHANNELS 3 Xrotation Yrotation Zrotation
									JOINT Bip01_L_UpperArm
									{
										OFFSET 20.272615 -12.959999 -2.510836
										CHANNELS 3 Xrotation Yrotation Zrotation
										JOINT Bip01_L_Forearm
										{
											OFFSET -13.633495 -15.503681 0.653678
											CHANNELS 3 Xrotation Yrotation Zrotation
											JOINT Bip01_L_Hand
											{
												OFFSET 2.579988 -27.804686 1.136487
												CHANNELS 3 Xrotation Yrotation Zrotation
												JOINT Bip01_L_Finger0
												{
													OFFSET -0.281765 -19.659058 0.398696
													CHANNELS 3 Xrotation Yrotation Zrotation
													JOINT Bip01_Xtra01
													{
														OFFSET 4.083549 -5.738758 -0.666714
														CHANNELS 3 Xrotation Yrotation Zrotation
														JOINT Bip01_Xtra01Nub
														{
															OFFSET 6.758158 -0.395525 -0.023239
															CHANNELS 3 Xrotation Yrotation Zrotation
															End Site
															{
																OFFSET 6.764923 -0.254147 -0.029908
															}
														}
													}
													JOINT Bip01_L_Finger0Nub
													{
														OFFSET -0.012636 -9.629153 0.045740
														CHANNELS 3 Xrotation Yrotation Zrotation
														End Site
														{
															OFFSET 0.988407 0.004791 8.293357
														}
													}
												}
											}
										}
									}
								}
								JOINT BN_hair03_01
								{
									OFFSET -5.894140 16.270622 -2.498433
									CHANNELS 3 Xrotation Yrotation Zrotation
									JOINT BN_hair03_02
									{
										OFFSET -0.189278 -7.800507 -6.219162
										CHANNELS 3 Xrotation Yrotation Zrotation
										JOINT BN_hair03_03
										{
											OFFSET 0.612345 -10.844475 -3.370718
											CHANNELS 3 Xrotation Yrotation Zrotation
											End Site
											{
												OFFSET -2.273296 2.862007 -10.769416
											}
										}
									}
								}
								JOINT Bip01_Neck1
								{
									OFFSET 9.383755 11.908699 -0.000007
									CHANNELS 3 Xrotation Yrotation Zrotation
									JOINT BN_hair02_01
									{
										OFFSET 9.126320 18.808022 -1.420810
										CHANNELS 3 Xrotation Yrotation Zrotation
										JOINT BN_hair02_02
										{
											OFFSET 0.393478 -5.181091 -5.248574
											CHANNELS 3 Xrotation Yrotation Zrotation
											JOINT BN_hair02_03
											{
												OFFSET 0.762280 -8.167076 -0.230047
												CHANNELS 3 Xrotation Yrotation Zrotation
												End Site
												{
													OFFSET -0.025837 -1.251419 -8.109770
												}
											}
										}
									}
									JOINT Bip01_Head
									{
										OFFSET 14.266129 10.475403 -0.000008
										CHANNELS 3 Xrotation Yrotation Zrotation
										JOINT BN_Reins_01
										{
											OFFSET 18.547455 -15.740112 -0.000035
											CHANNELS 3 Xrotation Yrotation Zrotation
											JOINT BN_Reins_02
											{
												OFFSET -5.372810 -5.884506 0.000028
												CHANNELS 3 Xrotation Yrotation Zrotation
												JOINT BN_Reins_03
												{
													OFFSET -6.395866 -15.947449 0.000070
													CHANNELS 3 Xrotation Yrotation Zrotation
													JOINT BN_Halter_R_01
													{
														OFFSET -1.234055 -3.096100 7.096737
														CHANNELS 3 Xrotation Yrotation Zrotation
														End Site
														{
															OFFSET 10.514435 -4.176861 -0.000004
														}
													}
													JOINT BN_Halter_L_01
													{
														OFFSET -1.234062 -3.096146 -7.096726
														CHANNELS 3 Xrotation Yrotation Zrotation
														End Site
														{
															OFFSET -10.514435 4.176865 -0.000000
														}
													}
													JOINT BN_Reins_04
													{
														OFFSET -6.737644 -16.971684 0.000074
														CHANNELS 3 Xrotation Yrotation Zrotation
														JOINT BN_Halter_R_02
														{
															OFFSET -4.688869 -11.781956 7.096771
															CHANNELS 3 Xrotation Yrotation Zrotation
															End Site
															{
																OFFSET 14.669624 -5.827511 -0.000006
															}
														}
														JOINT BN_Halter_L_02
														{
															OFFSET -4.688892 -11.782017 -7.096693
															CHANNELS 3 Xrotation Yrotation Zrotation
															End Site
															{
																OFFSET -14.669624 5.827507 -0.000002
															}
														}
														JOINT BN_Reins_05
														{
															OFFSET -6.822578 -16.971161 0.000074
															CHANNELS 3 Xrotation Yrotation Zrotation
															JOINT BN_Reins_06
															{
																OFFSET -6.140354 -15.095148 0.000066
																CHANNELS 3 Xrotation Yrotation Zrotation
																End Site
																{
																	OFFSET -15.095150 6.140352 -0.000002
																}
															}
														}
													}
												}
											}
										}
										JOINT BN_hair01_01
										{
											OFFSET 8.957344 8.870956 0.112121
											CHANNELS 3 Xrotation Yrotation Zrotation
											JOINT BN_hair01_02
											{
												OFFSET 6.002075 -2.962952 -3.121264
												CHANNELS 3 Xrotation Yrotation Zrotation
												End Site
												{
													OFFSET 5.917702 3.813591 -2.232396
												}
											}
										}
										JOINT BN_Eyebrow_R
										{
											OFFSET 11.795959 -0.430496 4.449781
											CHANNELS 3 Xrotation Yrotation Zrotation
											JOINT Bip01_Xtra06Nub
											{
												OFFSET 2.936661 -0.262573 3.246701
												CHANNELS 3 Xrotation Yrotation Zrotation
												End Site
												{
													OFFSET 2.768745 0.208199 3.394807
												}
											}
										}
										JOINT BN_Eyebrow_L
										{
											OFFSET 11.586395 -0.445618 -4.441728
											CHANNELS 3 Xrotation Yrotation Zrotation
											JOINT Bip01_Xtra05Nub
											{
												OFFSET 3.244698 -0.349442 -4.416700
												CHANNELS 3 Xrotation Yrotation Zrotation
												End Site
												{
													OFFSET 3.053162 0.072495 -4.564033
												}
											}
										}
										JOINT Bip01_R_Ear_01
										{
											OFFSET 7.142960 7.567184 4.311657
											CHANNELS 3 Xrotation Yrotation Zrotation
											JOINT Bip01_Xtra04Nub
											{
												OFFSET 9.464531 9.264214 1.682953
												CHANNELS 3 Xrotation Yrotation Zrotation
												End Site
												{
													OFFSET 8.448181 10.159340 1.910823
												}
											}
										}
										JOINT Bip01__L_Ear_01
										{
											OFFSET 7.214943 7.717056 -4.356771
											CHANNELS 3 Xrotation Yrotation Zrotation
											JOINT Bip01_Xtra03Nub
											{
												OFFSET 9.230225 8.944366 -2.322746
												CHANNELS 3 Xrotation Yrotation Zrotation
												End Site
												{
													OFFSET 8.170288 9.841324 -2.643566
												}
											}
										}
										JOINT Bip01_Jaw
										{
											OFFSET 9.196068 -4.110695 -0.000013
											CHANNELS 3 Xrotation Yrotation Zrotation
											JOINT Bip01_Ponytail1Nub
											{
												OFFSET 10.976463 -21.082108 -0.000053
												CHANNELS 3 Xrotation Yrotation Zrotation
												End Site
												{
													OFFSET 11.247093 -20.938980 0.000113
												}
											}
										}
										JOINT Bip01_HeadNub
										{
											OFFSET 29.954575 -18.249489 -0.000063
											CHANNELS 3 Xrotation Yrotation Zrotation
											End Site
											{
												OFFSET -9.198448 -13.366348 0.000168
											}
										}
									}
								}
							}
						}
					}
				}
			}
		}
	}
}
MOTION
Frames: 4
Frame Time: 0.033333
0.000000 0.000000 0.000000 0.000008 0.000000 -0.000000 -0.000000 0.000000 -0.000000 -0.000000 -2.130784 -0.000008 0.000001 0.000002 -0.000002 -4.142205 -6.101325 21.165875 0.101706 1.751708 3.936611 -0.149903 -1.202921 14.518050 -0.303492 -0.722787 19.753597 -0.122683 1.588421 4.926958 -0.000004 -0.000000 -0.000048 1.444542 -0.048506 -1.783728 -1.327030 -0.151682 6.768056 -1.536886 -0.190336 7.848400 1.473284 0.158552 -12.833981 -0.000064 -0.000003 -0.000085 0.000004 -0.000024 -0.000019 0.464910 -0.068035 -0.233206 -0.183841 -0.008577 -0.932236 -0.950428 -0.012117 -4.816283 0.658580 0.138161 5.981816 -0.000061 0.000006 0.000005 0.008451 -0.000129 0.038663 0.000010 0.000009 0.000006 0.000073 2.130713 -0.000019 0.163007 -0.175372 0.016908 0.000000 0.000004 -0.000032 0.000078 -0.000112 -0.000056 -0.000042 -0.027847 0.027952 3.697616 0.523971 -1.165308 -0.602735 -0.145484 0.237528 -3.234851 -0.707004 1.192653 0.000018 -0.000015 3.044579 -0.000049 0.000007 -3.044575 0.005797 -0.096133 2.308946 -0.000859 -0.116509 2.840891 -0.105531 0.002883 2.505452 0.867556 -0.013858 -7.177738 0.000166 0.000288 -0.000013 -0.802199 0.160589 -0.479847 -0.804180 0.123497 -0.482655 -0.000010 0.000005 -3.044600 -0.036010 -0.013176 -0.580229 -0.008270 -0.134977 -3.297529 0.117169 0.049158 3.282527 -0.000029 0.000369 0.000011 0.000017 -0.000313 -0.000030 0.028270 0.072123 2.451927 -0.000914 0.100647 2.451955 4.818159 0.470127 -0.811246 -0.631337 -0.079503 0.138222 -1.237884 -0.173443 0.263502 0.000004 -0.000005 3.044620 8.519755 0.793282 -0.155109 -0.893469 -0.083543 0.005455 -2.216424 -0.164217 0.155830 0.000013 -0.000049 -17.839834 -0.000062 -0.000322 -32.027669 -0.014918 0.044277 21.443369 -0.000092 -0.000106 -34.167697 -0.000019 -0.000034 -2.721288 0.000018 -0.000024 0.159845 -0.000163 -0.000139 -53.146252 -23.900797 -11.935531 -2.554905 34.949221 16.671930 -5.206570 -0.000090 -0.000113 -36.273516 0.000017 0.000041 -0.000005 4.611973 3.982329 4.609661 1.615699 -0.687384 4.289991 0.000033 -0.000066 0.000019 0.024227 -0.030002 11.786596 0.000045 -0.000030 0.000006 0.023221 -0.032294 11.715991 0.000047 -0.000037 0.000045 0.050271 0.015098 11.755975 -0.000036 0.000007 0.000023 0.050131 0.014752 11.743119 -0.000044 0.000036 -0.000029 -0.004521 -0.052602 11.750664 0.000056 -0.000026 11.750683 
0.000000 0.000000 0.000000 0.000008 0.000000 -0.000000 -0.000000 0.000000 -0.000000 0.031571 -2.099831 0.937740 0.000001 0.000002 -0.000002 -4.656738 -5.059134 17.400061 -0.285168 3.186337 13.310385 0.274847 -3.994736 7.305131 -0.096187 -1.199682 21.642462 -0.439040 4.251209 5.221183 0.015621 0.026340 0.637313 0.540952 1.141189 -1.705675 -0.822967 -0.075327 4.186454 -1.853649 -0.256529 9.486373 2.004694 -0.767261 -13.542375 -0.026127 -0.000003 -0.013699 0.000004 -0.000026 -0.000019 0.684565 2.086912 0.369983 -0.566095 -0.016824 -2.869128 0.188384 0.011888 0.956024 -0.243687 -1.624758 -0.053213 -0.042863 -0.297113 -0.001772 0.008451 -0.000130 0.038663 0.030759 -0.038276 -1.643412 -0.089492 2.108237 0.239886 0.163001 -0.175373 0.016908 -0.017974 0.164159 -1.029291 0.000078 -0.000112 -0.000056 -0.000042 -0.027847 0.027952 3.697596 0.523966 -1.165317 -0.602734 -0.145484 0.237528 -3.234853 -0.707005 1.192654 0.265747 -0.006985 3.364389 -0.260781 -0.038445 -3.741045 0.391786 -0.589264 1.505687 0.006752 -0.269083 6.566155 0.147241 0.924157 1.794628 0.374715 0.860251 -8.191200 0.010233 -0.053330 -0.073220 -0.802228 0.160589 -0.479849 -0.804180 0.123497 -0.482655 -0.240681 -0.257922 -1.628809 1.259165 0.410195 -0.936254 -0.005327 -0.099270 -2.424062 -1.608321 0.598122 4.024245 0.090401 -1.270807 -1.643584 0.005355 0.014050 -0.005095 0.028298 0.072123 2.451926 -0.000914 0.100645 2.451955 4.818150 0.470126 -0.811242 -2.436678 -2.369144 7.419762 -0.439145 0.593056 -2.123146 -0.057565 0.124855 0.842213 8.519741 0.793300 -0.155079 -5.194250 -0.758802 10.246010 -1.136495 -0.520023 -2.867303 -0.263255 -0.114678 -16.110348 -0.000062 -0.000322 -32.027679 0.010590 -0.029999 20.673903 -0.000091 -0.000106 -33.855499 -0.000019 -0.000033 -2.721289 0.000018 -0.000023 0.159845 -0.000161 -0.000139 -52.665943 -23.900799 -11.935530 -2.554912 34.949224 16.671928 -5.206567 -0.000089 -0.000113 -35.971926 0.000008 0.000045 0.000007 4.611711 3.982834 4.614133 3.084510 -4.005510 14.292209 0.000032 -0.000063 0.000018 0.024242 -0.029999 11.786618 0.000040 -0.000046 -0.000007 0.023235 -0.032295 11.715968 0.016551 -0.137854 0.832838 0.050285 0.015120 11.755976 0.037812 0.117343 0.594267 0.050144 0.014777 11.743107 -0.000046 0.000033 -0.286026 -0.004503 -0.052623 11.750669 0.000056 -0.000027 11.750677 
0.000000 0.000000 0.000000 0.000008 0.000000 -0.000000 -0.000000 0.000000 -0.000000 0.058949 -2.067135 1.767477 0.000001 0.000002 -0.000002 -5.043588 -4.000719 13.720447 -0.706766 3.818652 19.792211 0.441700 -5.466171 6.441685 0.230090 -2.002183 20.843097 -0.562638 5.797562 4.445759 0.031385 0.055712 1.234335 -0.270341 2.378756 -2.075466 -0.507279 -0.039258 2.577253 -2.082265 -0.310228 10.674802 2.592446 -1.708341 -14.143853 -0.044360 -0.000003 -0.027085 0.000004 -0.000026 -0.000019 0.600796 4.499493 0.052220 -0.488731 -0.016198 -2.477233 1.146977 0.121740 5.843803 -1.410020 -3.536922 -6.465951 -0.067440 -0.311991 -0.003840 0.008451 -0.000129 0.038663 0.062252 -0.081488 -3.383475 -0.177217 2.085804 0.475088 0.162990 -0.175373 0.016907 -0.033902 0.332971 -2.141173 0.000078 -0.000112 -0.000056 -0.000042 -0.027847 0.027952 3.697596 0.523966 -1.165317 -0.602738 -0.145481 0.237527 -3.234847 -0.707003 1.192655 0.544121 -0.011482 3.749765 -0.535896 -0.061063 -4.416884 0.797165 -1.139044 0.761160 0.024411 -0.421852 10.316401 0.466125 1.910935 1.206027 -0.169481 1.817123 -9.197489 0.020206 -0.105759 -0.144975 -0.802254 0.160589 -0.479851 -0.804180 0.123498 -0.482655 -0.487436 -0.526152 -0.200165 2.631110 0.856847 -1.127427 -0.003153 -0.067251 -1.641654 -3.449136 1.146370 4.876764 0.160947 -2.602404 -3.193006 0.010647 0.028115 -0.010043 0.028325 0.072123 2.451926 -0.000914 0.100645 2.451954 4.818105 0.470107 -0.811262 -5.353422 -5.800460 19.712896 1.081883 2.012260 -6.425397 -0.109424 0.256568 -1.280646 8.519746 0.793290 -0.155097 -12.913653 -1.843467 26.957812 0.751207 -1.160937 -8.281162 -0.542344 -0.261090 -14.375233 -0.000062 -0.000322 -32.027672 0.057626 -0.082781 19.825584 -0.000090 -0.000105 -33.549367 -0.000019 -0.000034 -2.721290 0.000018 -0.000024 0.159842 -0.000159 -0.000138 -52.194909 -23.900801 -11.935528 -2.554914 34.949224 16.671925 -5.206573 -0.000088 -0.000112 -35.676209 0.000033 0.000035 -0.000048 4.611455 3.983317 4.618532 9.374172 -10.185554 33.886898 0.000029 -0.000064 0.000021 0.024258 -0.030000 11.786639 0.000038 -0.000039 -0.000003 0.023252 -0.032299 11.715946 0.034701 -0.272744 1.649507 0.050297 0.015145 11.755985 0.073716 0.232749 1.176910 0.050156 0.014798 11.743097 -0.000047 0.000031 -0.542675 -0.004486 -0.052643 11.750662 0.000056 -0.000026 11.750679 
0.000000 0.000000 0.000000 0.000008 0.000000 -0.000000 -0.000000 0.000000 -0.000000 0.087664 -2.034635 2.650732 0.000001 0.000002 -0.000002 -5.278439 -2.105669 8.307243 -0.821574 3.741783 23.560854 0.903754 -5.556039 11.907823 0.554407 -3.204165 17.334574 -0.453944 6.274970 2.564658 0.047416 0.087544 1.820952 -1.053596 3.604178 -2.309046 -0.142367 -0.008704 0.722450 -2.334454 -0.375299 11.992535 3.176359 -2.629418 -14.775426 -0.060128 0.000002 -0.040106 0.000004 -0.000026 -0.000019 0.280231 6.809887 -0.572030 -0.222437 -0.009997 -1.127869 1.937764 0.275745 9.922725 -2.650606 -5.292732 -12.745812 -0.088714 -0.181604 -0.006173 0.008451 -0.000128 0.038663 0.094057 -0.128929 -5.215675 -0.265705 2.062820 0.712581 0.162968 -0.175373 0.016908 -0.047243 0.508119 -3.323849 0.000078 -0.000112 -0.000056 -0.000042 -0.027847 0.027951 3.697597 0.523965 -1.165317 -0.602733 -0.145480 0.237527 -3.234853 -0.707002 1.192653 0.835632 -0.013472 4.180756 -0.824662 -0.087906 -5.181155 1.223284 -1.646265 0.277180 0.051911 -0.572632 14.054354 0.768426 2.859979 0.548535 -0.664078 2.745966 -10.195764 0.030117 -0.159065 -0.217402 -0.802310 0.160590 -0.479855 -0.804181 0.123498 -0.482655 -0.743475 -0.784599 1.144165 3.960930 1.307360 -1.138863 -0.001328 -0.033338 -0.813689 -5.243972 1.657139 5.698966 0.187016 -3.906152 -4.789675 0.016107 0.042261 -0.015092 0.028379 0.072123 2.451926 -0.000914 0.100645 2.451954 4.818064 0.470109 -0.811235 -7.609913 -6.838725 23.369549 1.952999 2.800852 -8.762881 -0.156866 0.396125 -3.400381 8.519733 0.793289 -0.155090 -17.240410 -2.318636 30.974549 1.745006 -1.504813 -11.242152 -0.833974 -0.440816 -12.601153 -0.000062 -0.000322 -32.027669 0.077643 -0.140401 18.918494 -0.000089 -0.000104 -33.249368 -0.000019 -0.000034 -2.721288 0.000018 -0.000023 0.159842 -0.000157 -0.000138 -51.728588 -23.900797 -11.935531 -2.554910 34.949217 16.671930 -5.206567 -0.000087 -0.000111 -35.377528 0.000033 0.000035 -0.000046 4.611202 3.983818 4.622967 17.769883 -12.241078 49.655960 0.000022 -0.000051 0.000021 0.024289 -0.029988 11.786682 0.000036 -0.000032 0.000010 0.023279 -0.032287 11.715902 0.052407 -0.415622 2.529244 0.050322 0.015193 11.755988 0.112721 0.355192 1.798086 0.050182 0.014847 11.743086 -0.000048 0.000029 -0.801867 -0.004451 -0.052686 11.750665 0.000056 -0.000026 11.750686 
